#N canvas 0 87 683 681 10;
#X obj 62 256 + 200;
#X obj 67 313 osc~;
#X obj 64 396 dac~;
#X obj 102 16 bng 15 250 50 0 empty empty empty 17 7 0 10 -262144 -1
-1;
#X obj 62 163 metro 500;
#X obj 62 125 + 200;
#X obj 63 84 random 1000;
#X obj 205 254 + 200;
#X obj 205 161 metro 500;
#X obj 210 89 random 600;
#X obj 62 208 random 100;
#X obj 205 206 random 100;
#X obj 205 123 + 100;
#X obj 63 348 *~ 0.1;
#X connect 0 0 1 0;
#X connect 1 0 13 0;
#X connect 3 0 6 0;
#X connect 3 0 9 0;
#X connect 4 0 10 0;
#X connect 5 0 4 0;
#X connect 6 0 5 0;
#X connect 7 0 1 0;
#X connect 8 0 11 0;
#X connect 9 0 12 0;
#X connect 10 0 0 0;
#X connect 11 0 7 0;
#X connect 12 0 8 0;
#X connect 13 0 2 0;
#X connect 13 0 2 1;
