#N canvas 113 137 801 342 10;
#N canvas 430 91 548 456 tempo 0;
#X obj 100 100 cnv 15 200 100 empty empty Tempo: 20 12 0 14 -203904
-66577 0;
#X obj 117 135 hsl 128 15 30 240 0 0 empty empty empty -2 -8 0 10 -4032
-257985 -1 6400 1;
#X obj 114 223 int;
#X floatatom 254 135 6 0 0 0 - - -;
#N canvas 60 100 690 700 keyboard 0;
#X symbolatom 138 -58 10 0 0 0 - - -;
#X obj 68 -4 + 0.25;
#X obj 69 170 - 0.25;
#X floatatom -7 23 5 0 0 0 - - -;
#X floatatom -6 205 5 0 0 0 - - -;
#X obj 32 39 send up;
#X obj 34 221 send down;
#X obj -41 121 receive up;
#X obj -50 -48 receive down;
#X obj -7 -4 float \$1;
#X obj -6 170 float \$1;
#X obj 38 -31 max 30;
#X obj 39 138 min 240;
#X floatatom -12 394 5 0 0 0 - - -;
#X obj -44 309 receive up;
#X obj -12 359 float \$1;
#X obj 33 327 min 240;
#X obj 63 359 - 5;
#X obj 29 410 send left;
#X obj -30 -84 receive left;
#X obj 17 -116 receive right;
#X floatatom 8 584 5 0 0 0 - - -;
#X obj 47 600 send up;
#X obj 8 557 float \$1;
#X obj 53 530 max 30;
#X obj -35 513 receive up;
#X obj -15 477 receive down;
#X obj 32 445 receive left;
#X obj 83 557 + 5;
#X obj -18 96 receive left;
#X obj 29 64 receive right;
#X obj -22 282 receive down;
#X obj 25 250 receive right;
#X obj 137 -106 inlet;
#X obj 353 98 receive up;
#X obj 360 132 receive down;
#X obj 276 132 receive left;
#X obj 442 132 receive right;
#X obj 353 215 outlet;
#X obj 138 -21 sel Up Down Left Right;
#X connect 0 0 39 0;
#X connect 1 0 9 1;
#X connect 2 0 10 1;
#X connect 3 0 5 0;
#X connect 4 0 6 0;
#X connect 7 0 12 0;
#X connect 8 0 11 0;
#X connect 9 0 3 0;
#X connect 9 0 1 0;
#X connect 10 0 4 0;
#X connect 10 0 2 0;
#X connect 11 0 9 1;
#X connect 12 0 10 1;
#X connect 13 0 18 0;
#X connect 14 0 16 0;
#X connect 15 0 13 0;
#X connect 15 0 17 0;
#X connect 16 0 15 1;
#X connect 17 0 15 1;
#X connect 19 0 11 0;
#X connect 20 0 11 0;
#X connect 21 0 22 0;
#X connect 23 0 21 0;
#X connect 23 0 28 0;
#X connect 24 0 23 1;
#X connect 25 0 24 0;
#X connect 26 0 24 0;
#X connect 27 0 24 0;
#X connect 28 0 23 1;
#X connect 29 0 12 0;
#X connect 30 0 12 0;
#X connect 31 0 16 0;
#X connect 32 0 16 0;
#X connect 33 0 0 0;
#X connect 34 0 38 0;
#X connect 35 0 38 0;
#X connect 36 0 38 0;
#X connect 37 0 38 0;
#X connect 39 0 9 0;
#X connect 39 1 10 0;
#X connect 39 2 15 0;
#X connect 39 3 23 0;
#X restore 114 58 pd keyboard;
#X obj 114 255 s tempo;
#X obj 114 26 keyname;
#X obj 29 33 loadbang;
#X obj 58 69 60;
#X connect 1 0 2 0;
#X connect 2 0 3 0;
#X connect 2 0 5 0;
#X connect 4 0 1 0;
#X connect 6 1 4 0;
#X connect 7 0 8 0;
#X connect 8 0 1 0;
#X coords 0 -1 1 1 200 100 1 100 100;
#X restore 60 20 pd tempo;
#N canvas 582 34 683 738 light_sound 0;
#X obj 100 100 cnv 15 258 100 empty empty Volume_controle: 20 12 0
14 -262130 -66577 0;
#X obj 108 -130 osc~ 440;
#X obj 108 45 *~;
#X obj 123 5 line~;
#X obj 123 -33 1 50;
#X obj 185 -12 0 50;
#X obj 185 -50 delay 50;
#X obj 126 153 hsl 120 30 0.01 1 1 0 \$0-v \$0-v volume 7 13 1 9 -245500
-13381 -1 10200 0;
#X obj 269 110 tgl 30 0 THIS_IS_HERE_TO_GET_RID_OF_THE_OUTLET \$0-dsp-toggle
dsp 8 14 1 9 -225271 -195568 -33289 1 1;
#N canvas 366 444 482 356 dsp 0;
#X obj 11 7 inlet;
#X obj 92 226 select 0 1;
#X msg 125 248 6;
#X obj 92 57 route dsp;
#X obj 92 36 receive pd;
#X obj 206 138 loadbang;
#X msg 11 220 dsp \$1;
#X obj 11 245 send pd;
#X msg 206 278 set \$1;
#X obj 206 174 value GLOBAL_PDDP_DSP;
#X msg 109 278 color \$1 20 12;
#X obj 180 309 send \$0-dsp-toggle;
#X obj 92 115 change;
#X msg 92 247 0;
#X connect 0 0 6 0;
#X connect 0 0 12 0;
#X connect 1 0 13 0;
#X connect 1 1 2 0;
#X connect 2 0 10 0;
#X connect 3 0 12 0;
#X connect 4 0 3 0;
#X connect 5 0 9 0;
#X connect 6 0 7 0;
#X connect 8 0 11 0;
#X connect 9 0 8 0;
#X connect 9 0 1 0;
#X connect 10 0 11 0;
#X connect 12 0 8 0;
#X connect 12 0 1 0;
#X connect 12 0 9 0;
#X connect 13 0 10 0;
#X restore 264 73 pd dsp logic;
#X obj 269 153 bng 30 1000 50 0 THIS_IS_HERE_TO_GET_RID_OF_THE_OUTLET
\$0-MUTE_TOGGLE empty 0 9 2 8 -262144 -258699 -195568;
#X obj 222 289 line~;
#X obj 322 349 *~;
#X obj 342 379 dac~;
#X obj 384 348 *~;
#X obj 471 60 hip~ 3;
#X obj 533 60 hip~ 3;
#X obj 118 304 send pd;
#X msg 118 283 dsp 1;
#X obj 384 378 outlet~;
#X obj 284 378 outlet~;
#X obj 466 378 outlet;
#N canvas 679 297 361 328 mute 0;
#X obj 23 20 inlet;
#X obj 173 20 inlet;
#X obj 222 208 float;
#X obj 265 121 tgl 15 1 empty empty empty 17 7 0 10 -262144 -1 -1 1
1;
#X obj 222 162 spigot;
#X obj 172 41 trigger bang bang;
#X obj 254 263 outlet;
#X msg 274 208 0;
#X obj 274 163 select 0;
#X obj 127 64 bang;
#X msg 127 85 set 1;
#X obj 65 304 send \$0-MUTE_TOGGLE;
#X msg 65 283 color \$1 13 20;
#X obj 65 235 bang;
#X msg 65 255 0;
#X msg 98 255 3;
#X connect 0 0 2 1;
#X connect 0 0 9 0;
#X connect 1 0 5 0;
#X connect 2 0 6 0;
#X connect 2 0 13 0;
#X connect 3 0 4 1;
#X connect 3 0 8 0;
#X connect 4 0 2 0;
#X connect 5 0 4 0;
#X connect 5 1 3 0;
#X connect 7 0 6 0;
#X connect 8 0 7 0;
#X connect 8 0 15 0;
#X connect 9 0 10 0;
#X connect 9 0 13 0;
#X connect 10 0 3 0;
#X connect 12 0 11 0;
#X connect 13 0 14 0;
#X connect 14 0 12 0;
#X connect 15 0 12 0;
#X restore 230 217 pd mute;
#X obj 222 268 pack 0 50;
#X text 289 267 <-- make a ramp to avoid clicks or zipper noise;
#X msg 222 233 0;
#X obj 222 210 moses 0.011;
#X text 577 61 filter out DC;
#X obj 123 -95 r bang2;
#X obj 248 35 *~;
#X obj 263 -5 line~;
#X obj 263 -43 1 50;
#X obj 325 -22 0 50;
#X obj 325 -60 delay 50;
#X obj 263 -105 r bang1;
#X obj 248 -140 osc~ 500;
#X obj 396 13 loadbang;
#X connect 1 0 2 0;
#X connect 2 0 15 0;
#X connect 2 0 16 0;
#X connect 3 0 2 1;
#X connect 4 0 3 0;
#X connect 5 0 3 0;
#X connect 6 0 5 0;
#X connect 7 0 18 0;
#X connect 7 0 22 0;
#X connect 7 0 21 0;
#X connect 7 0 26 0;
#X connect 8 0 9 0;
#X connect 10 0 22 1;
#X connect 11 0 14 0;
#X connect 11 0 12 0;
#X connect 12 0 13 0;
#X connect 12 0 20 0;
#X connect 14 0 13 1;
#X connect 14 0 19 0;
#X connect 15 0 12 1;
#X connect 16 0 14 1;
#X connect 18 0 17 0;
#X connect 22 0 7 0;
#X connect 22 0 26 0;
#X connect 23 0 11 0;
#X connect 25 0 23 0;
#X connect 26 0 25 0;
#X connect 26 1 23 0;
#X connect 28 0 6 0;
#X connect 28 0 4 0;
#X connect 29 0 15 0;
#X connect 29 0 16 0;
#X connect 30 0 29 1;
#X connect 31 0 30 0;
#X connect 32 0 30 0;
#X connect 33 0 32 0;
#X connect 34 0 33 0;
#X connect 34 0 31 0;
#X connect 35 0 29 0;
#X connect 36 0 8 0;
#X coords 0 -1 1 1 258 100 1 100 100;
#X restore 1 119 pd light_sound;
#N canvas 598 33 359 361 on_off 0;
#X obj 100 100 cnv 15 58 98 empty empty On/Off: 3 12 0 10 -204786 -66577
0;
#X obj 111 147 tgl 40 0 empty empty empty 17 7 0 10 -261234 -258113
-1 0 1;
#X obj 167 187 metro \$1;
#X obj 38 129 sel 109;
#N canvas 340 113 706 543 timer 0;
#X obj 165 86 expr $f1 \; if ($f1 > 0 \, ( 60 / $f1 ) * 1000 \, $f1)
\; if ($f1 <= 0 \, $f1 + 1 \, $f1);
#X obj 164 27 inlet;
#X obj 281 189 outlet;
#X text 431 92 Equasion for tempo conversion in to miliseconds for
[metro] object.;
#X connect 0 1 2 0;
#X connect 1 0 0 0;
#X restore 212 146 pd timer;
#X obj 244 204 s bang;
#X obj 212 104 r tempo;
#X obj 38 100 key;
#X obj 111 227 s on;
#X connect 1 0 2 0;
#X connect 1 0 8 0;
#X connect 2 0 5 0;
#X connect 3 0 1 0;
#X connect 4 0 2 1;
#X connect 6 0 4 0;
#X connect 7 0 3 0;
#X coords 0 -1 1 1 58 98 1 100 100;
#X restore 1 20 pd on_off;
#N canvas 562 267 708 632 light 0;
#X obj 100 67 r bang;
#X obj 100 100 bng 130 250 50 0 $LIGHT empty empty 17 7 0 10 -262144
-1 -1;
#X obj 100 100 cnv 15 287 200 empty $colLIGHT empty 20 12 0 14 -166441
-262144 0;
#N canvas 419 22 651 747 counter 0;
#X obj 48 266 float;
#X obj 102 266 + 1;
#X floatatom 48 362 5 0 0 0 - - -;
#X obj 48 216 r bang;
#X obj 48 340 + 1;
#X obj 21 410 sel 1 2 3 4 5 6 7 8 9;
#X obj 48 316 mod;
#N canvas 0 22 450 300 reset 0;
#X obj 33 133 r on;
#X obj 33 169 0;
#X obj 87 131 r ONE;
#X obj 126 131 r TWO;
#X obj 165 131 r THREE;
#X obj 215 131 r FOUR;
#X obj 259 131 r FIVE;
#X obj 84 167 r SIX;
#X obj 122 167 r SEVEN;
#X obj 172 167 r EIGHT;
#X obj 222 167 r NINE;
#X obj 34 208 outlet;
#X connect 0 0 1 0;
#X connect 1 0 11 0;
#X connect 2 0 1 0;
#X connect 3 0 1 0;
#X connect 4 0 1 0;
#X connect 5 0 1 0;
#X connect 6 0 1 0;
#X connect 7 0 1 0;
#X connect 8 0 1 0;
#X connect 9 0 1 0;
#X connect 10 0 1 0;
#X restore -23 345 pd reset;
#N canvas 0 22 450 300 bar 0;
#X obj 43 67 r ONE;
#X obj 43 91 1;
#X obj 121 90 3;
#X obj 82 90 2;
#X obj 171 90 4;
#X obj 215 90 5;
#X obj 262 91 6;
#X obj 300 91 7;
#X obj 350 91 8;
#X obj 400 91 9;
#X obj 82 67 r TWO;
#X obj 121 67 r THREE;
#X obj 171 67 r FOUR;
#X obj 215 67 r FIVE;
#X obj 262 68 r SIX;
#X obj 300 68 r SEVEN;
#X obj 350 68 r EIGHT;
#X obj 400 68 r NINE;
#X obj 197 186 outlet;
#X connect 0 0 1 0;
#X connect 1 0 18 0;
#X connect 2 0 18 0;
#X connect 3 0 18 0;
#X connect 4 0 18 0;
#X connect 5 0 18 0;
#X connect 6 0 18 0;
#X connect 7 0 18 0;
#X connect 8 0 18 0;
#X connect 9 0 18 0;
#X connect 10 0 3 0;
#X connect 11 0 2 0;
#X connect 12 0 4 0;
#X connect 13 0 5 0;
#X connect 14 0 6 0;
#X connect 15 0 7 0;
#X connect 16 0 8 0;
#X connect 17 0 9 0;
#X restore 139 299 pd bar;
#X msg 92 584 \; $colLIGHT color \$1;
#X msg 92 549 15;
#X msg -106 511 \; $colLIGHT color \$1;
#X msg -106 476 13;
#X msg -73 476 1;
#X msg 125 549 1;
#X obj -73 451 del 100;
#X obj 125 524 del 100;
#X obj -125 427 t b b b;
#X obj 73 500 t b b b;
#X obj -161 476 s bang1;
#X obj 38 549 s bang2;
#X connect 0 0 1 0;
#X connect 0 0 6 0;
#X connect 1 0 0 1;
#X connect 2 0 5 0;
#X connect 3 0 0 0;
#X connect 4 0 2 0;
#X connect 5 0 17 0;
#X connect 5 1 18 0;
#X connect 5 2 18 0;
#X connect 5 3 18 0;
#X connect 5 4 18 0;
#X connect 5 5 18 0;
#X connect 5 6 18 0;
#X connect 5 7 18 0;
#X connect 5 8 18 0;
#X connect 6 0 4 0;
#X connect 7 0 2 0;
#X connect 8 0 6 1;
#X connect 10 0 9 0;
#X connect 12 0 11 0;
#X connect 13 0 11 0;
#X connect 14 0 9 0;
#X connect 15 0 13 0;
#X connect 16 0 14 0;
#X connect 17 0 19 0;
#X connect 17 1 12 0;
#X connect 17 2 15 0;
#X connect 18 0 20 0;
#X connect 18 1 10 0;
#X connect 18 2 16 0;
#X restore -25 278 pd counter;
#X connect 0 0 1 0;
#X coords 0 -1 1 1 287 200 1 100 100;
#X restore 260 20 pd light;
#N canvas 242 85 473 469 one 0;
#X obj 100 100 tgl 60 0 empty empty empty 17 7 0 10 -262144 -1 -1 0
1;
#X msg 181 332 \; $colONE color \$1;
#X obj 100 100 cnv 15 60 60 empty $colONE empty 20 12 0 14 -261681
-262144 0;
#X obj 100 36 key;
#X obj 181 160 sel 1 0;
#X msg 200 262 \; $colONE color \$1;
#X msg 200 238 4;
#X msg 181 297 14;
#X floatatom 280 56 5 0 0 0 - - -;
#X obj 100 68 sel 49;
#X text 117 121 1/4;
#X obj 126 177 s ONE;
#N canvas 346 279 644 409 button 0;
#X obj 92 77 r TWO;
#X obj 131 77 r THREE;
#X obj 181 77 r FOUR;
#X obj 225 77 r FIVE;
#X obj 272 78 r SIX;
#X obj 310 78 r SEVEN;
#X obj 360 78 r EIGHT;
#X obj 410 78 r NINE;
#X obj 207 158 sel 1 0;
#X obj 207 233 outlet;
#X msg 207 203 0;
#X obj 207 126 tgl 15 0 empty empty empty 17 7 0 10 -262144 -1 -1 0
1;
#X obj 31 82 r ONE;
#X msg 63 109 0;
#X connect 0 0 11 0;
#X connect 1 0 11 0;
#X connect 2 0 11 0;
#X connect 3 0 11 0;
#X connect 4 0 11 0;
#X connect 5 0 11 0;
#X connect 6 0 11 0;
#X connect 7 0 11 0;
#X connect 8 0 10 0;
#X connect 10 0 9 0;
#X connect 11 0 8 0;
#X connect 12 0 13 0;
#X connect 13 0 11 0;
#X restore 10 83 pd button;
#X obj 26 45 loadbang;
#X connect 0 0 4 0;
#X connect 3 0 8 0;
#X connect 3 0 9 0;
#X connect 4 0 7 0;
#X connect 4 0 11 0;
#X connect 4 1 6 0;
#X connect 6 0 5 0;
#X connect 7 0 1 0;
#X connect 9 0 0 0;
#X connect 12 0 0 0;
#X connect 13 0 0 0;
#X coords 0 -1 1 1 60 60 1 100 100;
#X restore 0 220 pd one;
#N canvas 574 51 545 629 two 0;
#X obj 100 100 tgl 60 0 empty empty empty 17 7 0 10 -262144 -1 -1 0
1;
#X obj 100 100 cnv 15 60 60 empty $colTWO empty 20 12 0 14 -261681
-262144 0;
#X obj 100 36 key;
#X obj 181 160 sel 1 0;
#X msg 200 238 4;
#X msg 181 297 14;
#X text 117 121 2/4;
#X obj 141 177 s TWO;
#X obj 100 68 sel 50;
#X floatatom 280 56 5 0 0 0 - - -;
#X msg 200 262 \; $colTWO color \$1;
#X msg 181 331 \; $colTWO color \$1;
#N canvas 346 279 644 409 button 0;
#X obj 131 77 r THREE;
#X obj 181 77 r FOUR;
#X obj 225 77 r FIVE;
#X obj 272 78 r SIX;
#X obj 310 78 r SEVEN;
#X obj 360 78 r EIGHT;
#X obj 410 78 r NINE;
#X obj 207 158 sel 1 0;
#X obj 207 233 outlet;
#X msg 207 203 0;
#X obj 207 126 tgl 15 0 empty empty empty 17 7 0 10 -262144 -1 -1 1
1;
#X msg 63 109 0;
#X obj 31 82 r TWO;
#X obj 92 77 r ONE;
#X connect 0 0 10 0;
#X connect 1 0 10 0;
#X connect 2 0 10 0;
#X connect 3 0 10 0;
#X connect 4 0 10 0;
#X connect 5 0 10 0;
#X connect 6 0 10 0;
#X connect 7 0 9 0;
#X connect 9 0 8 0;
#X connect 10 0 7 0;
#X connect 11 0 10 0;
#X connect 12 0 11 0;
#X connect 13 0 10 0;
#X restore 20 83 pd button;
#X connect 0 0 3 0;
#X connect 2 0 8 0;
#X connect 2 0 9 0;
#X connect 3 0 5 0;
#X connect 3 0 7 0;
#X connect 3 1 4 0;
#X connect 4 0 10 0;
#X connect 5 0 11 0;
#X connect 8 0 0 0;
#X connect 12 0 0 0;
#X coords 0 -1 1 1 60 60 1 100 100;
#X restore 61 220 pd two;
#N canvas 559 25 654 723 three 0;
#X obj 100 100 tgl 60 0 empty empty empty 17 7 0 10 -262144 -1 -1 0
1;
#X obj 100 100 cnv 15 60 60 empty $colTHREE empty 20 12 0 14 -261681
-262144 0;
#X obj 100 36 key;
#X obj 181 160 sel 1 0;
#X msg 200 238 4;
#X msg 181 297 14;
#X msg 200 262 \; $colTHREE color \$1;
#X msg 181 329 \; $colTHREE color \$1;
#X text 117 121 3/4;
#X obj 121 177 s THREE;
#X obj 100 68 sel 51;
#N canvas 346 279 644 409 button 0;
#X obj 181 77 r FOUR;
#X obj 225 77 r FIVE;
#X obj 272 78 r SIX;
#X obj 310 78 r SEVEN;
#X obj 360 78 r EIGHT;
#X obj 410 78 r NINE;
#X obj 207 158 sel 1 0;
#X obj 207 233 outlet;
#X msg 207 203 0;
#X obj 207 126 tgl 15 0 empty empty empty 17 7 0 10 -262144 -1 -1 0
1;
#X msg 63 109 0;
#X obj 31 82 r THREE;
#X obj 93 77 r ONE;
#X obj 131 77 r TWO;
#X connect 0 0 9 0;
#X connect 1 0 9 0;
#X connect 2 0 9 0;
#X connect 3 0 9 0;
#X connect 4 0 9 0;
#X connect 5 0 9 0;
#X connect 6 0 8 0;
#X connect 8 0 7 0;
#X connect 9 0 6 0;
#X connect 10 0 9 0;
#X connect 11 0 10 0;
#X connect 12 0 9 0;
#X connect 13 0 9 0;
#X restore 30 83 pd button;
#X connect 0 0 3 0;
#X connect 2 0 10 0;
#X connect 3 0 5 0;
#X connect 3 0 9 0;
#X connect 3 1 4 0;
#X connect 4 0 6 0;
#X connect 5 0 7 0;
#X connect 10 0 0 0;
#X connect 11 0 0 0;
#X coords 0 -1 1 1 60 60 1 100 100;
#X restore 121 220 pd three;
#N canvas 595 97 545 629 four 0;
#X obj 100 100 tgl 60 0 empty empty empty 17 7 0 10 -262144 -1 -1 0
1;
#X obj 100 100 cnv 15 60 60 empty $colFOUR empty 20 12 0 14 -261681
-262144 0;
#X obj 100 36 key;
#X obj 181 160 sel 1 0;
#X msg 200 238 4;
#X msg 181 297 14;
#X msg 200 262 \; $colFOUR color \$1;
#X msg 181 324 \; $colFOUR color \$1;
#X text 117 121 4/4;
#X floatatom 194 40 5 0 0 0 - - -;
#X obj 100 68 sel 52;
#X obj 141 177 s FOUR;
#N canvas 346 279 644 409 button 0;
#X obj 132 77 r TWO;
#X obj 171 77 r THREE;
#X obj 33 74 r FOUR;
#X obj 225 77 r FIVE;
#X obj 272 78 r SIX;
#X obj 310 78 r SEVEN;
#X obj 360 78 r EIGHT;
#X obj 410 78 r NINE;
#X obj 207 158 sel 1 0;
#X obj 207 233 outlet;
#X msg 207 203 0;
#X obj 207 126 tgl 15 0 empty empty empty 17 7 0 10 -262144 -1 -1 1
1;
#X obj 87 76 r ONE;
#X msg 63 109 0;
#X connect 0 0 11 0;
#X connect 1 0 11 0;
#X connect 2 0 13 0;
#X connect 3 0 11 0;
#X connect 4 0 11 0;
#X connect 5 0 11 0;
#X connect 6 0 11 0;
#X connect 7 0 11 0;
#X connect 8 0 10 0;
#X connect 10 0 9 0;
#X connect 11 0 8 0;
#X connect 12 0 11 0;
#X connect 13 0 11 0;
#X restore 28 84 pd button;
#X connect 0 0 3 0;
#X connect 2 0 9 0;
#X connect 2 0 10 0;
#X connect 3 0 5 0;
#X connect 3 0 11 0;
#X connect 3 1 4 0;
#X connect 4 0 6 0;
#X connect 5 0 7 0;
#X connect 10 0 0 0;
#X connect 12 0 0 0;
#X coords 0 -1 1 1 60 60 1 100 100;
#X restore 182 220 pd four;
#N canvas 574 51 545 629 five 0;
#X obj 100 100 tgl 60 0 empty empty empty 17 7 0 10 -262144 -1 -1 0
1;
#X obj 100 100 cnv 15 60 60 empty $colFIVE empty 20 12 0 14 -261681
-262144 0;
#X obj 100 36 key;
#X obj 181 160 sel 1 0;
#X msg 200 238 4;
#X msg 181 297 14;
#X obj 100 68 sel 53;
#X obj 141 177 s FIVE;
#X msg 200 262 \; $colFIVE color \$1;
#X msg 181 329 \; $colFIVE color \$1;
#X text 117 121 5/4;
#N canvas 346 279 644 409 button 0;
#X obj 132 77 r TWO;
#X obj 171 77 r THREE;
#X obj 272 78 r SIX;
#X obj 310 78 r SEVEN;
#X obj 360 78 r EIGHT;
#X obj 410 78 r NINE;
#X obj 207 158 sel 1 0;
#X obj 207 233 outlet;
#X msg 207 203 0;
#X obj 207 126 tgl 15 0 empty empty empty 17 7 0 10 -262144 -1 -1 0
1;
#X obj 87 76 r ONE;
#X msg 63 109 0;
#X obj 33 74 r FIVE;
#X obj 225 77 r FOUR;
#X connect 0 0 9 0;
#X connect 1 0 9 0;
#X connect 2 0 9 0;
#X connect 3 0 9 0;
#X connect 4 0 9 0;
#X connect 5 0 9 0;
#X connect 6 0 8 0;
#X connect 8 0 7 0;
#X connect 9 0 6 0;
#X connect 10 0 9 0;
#X connect 11 0 9 0;
#X connect 12 0 11 0;
#X connect 13 0 9 0;
#X restore 26 83 pd button;
#X connect 0 0 3 0;
#X connect 2 0 6 0;
#X connect 3 0 5 0;
#X connect 3 0 7 0;
#X connect 3 1 4 0;
#X connect 4 0 8 0;
#X connect 5 0 9 0;
#X connect 6 0 0 0;
#X connect 11 0 0 0;
#X coords 0 -1 1 1 60 60 1 100 100;
#X restore 243 220 pd five;
#N canvas 574 51 545 629 six 0;
#X obj 100 100 tgl 60 0 empty empty empty 17 7 0 10 -262144 -1 -1 0
1;
#X obj 100 100 cnv 15 60 60 empty $colSIX empty 20 12 0 14 -261681
-262144 0;
#X obj 100 36 key;
#X obj 181 160 sel 1 0;
#X msg 200 238 4;
#X msg 181 297 14;
#X text 117 121 6/4;
#X obj 100 68 sel 54;
#X obj 141 177 s SIX;
#X msg 200 262 \; $colSIX color \$1;
#X msg 181 328 \; $colSIX color \$1;
#N canvas 346 279 644 409 button 0;
#X obj 132 77 r TWO;
#X obj 171 77 r THREE;
#X obj 220 77 r FOUR;
#X obj 265 78 r FIVE;
#X obj 35 75 r SIX;
#X obj 310 78 r SEVEN;
#X obj 360 78 r EIGHT;
#X obj 410 78 r NINE;
#X obj 207 158 sel 1 0;
#X obj 207 233 outlet;
#X msg 207 203 0;
#X obj 207 126 tgl 15 0 empty empty empty 17 7 0 10 -262144 -1 -1 1
1;
#X obj 87 76 r ONE;
#X msg 63 109 0;
#X connect 0 0 11 0;
#X connect 1 0 11 0;
#X connect 2 0 11 0;
#X connect 3 0 11 0;
#X connect 4 0 13 0;
#X connect 5 0 11 0;
#X connect 6 0 11 0;
#X connect 7 0 11 0;
#X connect 8 0 10 0;
#X connect 10 0 9 0;
#X connect 11 0 8 0;
#X connect 12 0 11 0;
#X connect 13 0 11 0;
#X restore 26 84 pd button;
#X connect 0 0 3 0;
#X connect 2 0 7 0;
#X connect 3 0 5 0;
#X connect 3 0 8 0;
#X connect 3 1 4 0;
#X connect 4 0 9 0;
#X connect 5 0 10 0;
#X connect 7 0 0 0;
#X connect 11 0 0 0;
#X coords 0 -1 1 1 60 60 1 100 100;
#X restore 304 220 pd six;
#N canvas 574 51 545 629 seven 0;
#X obj 100 100 tgl 60 0 empty empty empty 17 7 0 10 -262144 -1 -1 0
1;
#X obj 100 100 cnv 15 60 60 empty $colSEVEN empty 20 12 0 14 -261681
-262144 0;
#X obj 100 36 key;
#X obj 181 160 sel 1 0;
#X msg 200 238 4;
#X msg 181 297 14;
#X text 117 121 7/4;
#X obj 131 177 s SEVEN;
#X msg 200 262 \; $colSEVEN color \$1;
#X msg 181 330 \; $colSEVEN color \$1;
#X obj 100 68 sel 55;
#N canvas 346 279 644 409 button 0;
#X obj 132 77 r TWO;
#X obj 171 77 r THREE;
#X obj 220 77 r FOUR;
#X obj 265 78 r FIVE;
#X obj 360 78 r EIGHT;
#X obj 410 78 r NINE;
#X obj 207 158 sel 1 0;
#X obj 207 233 outlet;
#X msg 207 203 0;
#X obj 207 126 tgl 15 0 empty empty empty 17 7 0 10 -262144 -1 -1 0
1;
#X obj 87 76 r ONE;
#X msg 63 109 0;
#X obj 35 75 r SEVEN;
#X obj 310 78 r SIX;
#X connect 0 0 9 0;
#X connect 1 0 9 0;
#X connect 2 0 9 0;
#X connect 3 0 9 0;
#X connect 4 0 9 0;
#X connect 5 0 9 0;
#X connect 6 0 8 0;
#X connect 8 0 7 0;
#X connect 9 0 6 0;
#X connect 10 0 9 0;
#X connect 11 0 9 0;
#X connect 12 0 11 0;
#X connect 13 0 9 0;
#X restore 17 83 pd button;
#X connect 0 0 3 0;
#X connect 2 0 10 0;
#X connect 3 0 5 0;
#X connect 3 0 7 0;
#X connect 3 1 4 0;
#X connect 4 0 8 0;
#X connect 5 0 9 0;
#X connect 10 0 0 0;
#X connect 11 0 0 0;
#X coords 0 -1 1 1 60 60 1 100 100;
#X restore 365 220 pd seven;
#N canvas 574 51 545 629 six 0;
#X obj 100 100 tgl 60 0 empty empty empty 17 7 0 10 -262144 -1 -1 0
1;
#X obj 100 100 cnv 15 60 60 empty $colEIGHT empty 20 12 0 14 -261681
-262144 0;
#X obj 100 36 key;
#X obj 181 160 sel 1 0;
#X msg 200 238 4;
#X msg 181 297 14;
#X text 117 121 8/4;
#X obj 100 68 sel 56;
#X obj 121 177 s EIGHT;
#X msg 200 262 \; $colEIGHT color \$1;
#X msg 181 328 \; $colEIGHT color \$1;
#N canvas 346 279 644 409 button 0;
#X obj 132 77 r TWO;
#X obj 171 77 r THREE;
#X obj 220 77 r FOUR;
#X obj 265 78 r FIVE;
#X obj 310 75 r SIX;
#X obj 349 77 r SEVEN;
#X obj 24 74 r EIGHT;
#X obj 410 78 r NINE;
#X obj 207 158 sel 1 0;
#X obj 207 233 outlet;
#X msg 207 203 0;
#X obj 207 126 tgl 15 0 empty empty empty 17 7 0 10 -262144 -1 -1 1
1;
#X obj 87 76 r ONE;
#X msg 63 109 0;
#X connect 0 0 11 0;
#X connect 1 0 11 0;
#X connect 2 0 11 0;
#X connect 3 0 11 0;
#X connect 5 0 11 0;
#X connect 6 0 13 0;
#X connect 7 0 11 0;
#X connect 8 0 10 0;
#X connect 10 0 9 0;
#X connect 11 0 8 0;
#X connect 12 0 11 0;
#X connect 13 0 11 0;
#X restore 28 83 pd button;
#X connect 0 0 3 0;
#X connect 2 0 7 0;
#X connect 3 0 5 0;
#X connect 3 0 8 0;
#X connect 3 1 4 0;
#X connect 4 0 9 0;
#X connect 5 0 10 0;
#X connect 7 0 0 0;
#X connect 11 0 0 0;
#X coords 0 -1 1 1 60 60 1 100 100;
#X restore 426 220 pd six;
#N canvas 574 51 545 629 seven 0;
#X obj 100 100 tgl 60 0 empty empty empty 17 7 0 10 -262144 -1 -1 1
1;
#X obj 100 100 cnv 15 60 60 empty $colNINE empty 20 12 0 14 -260818
-262144 0;
#X obj 100 36 key;
#X obj 181 160 sel 1 0;
#X msg 200 238 4;
#X msg 181 297 14;
#X obj 131 177 s NINE;
#X msg 200 262 \; $colNINE color \$1;
#X msg 181 324 \; $colNINE color \$1;
#X obj 100 68 sel 57;
#X text 118 122 9/4;
#N canvas 346 279 644 409 button 0;
#X obj 132 77 r TWO;
#X obj 171 77 r THREE;
#X obj 220 77 r FOUR;
#X obj 265 78 r FIVE;
#X obj 312 78 r SIX;
#X obj 355 78 r SEVEN;
#X obj 405 78 r EIGHT;
#X obj 28 74 r NINE;
#X obj 207 158 sel 1 0;
#X obj 207 233 outlet;
#X msg 207 203 0;
#X obj 207 126 tgl 15 0 empty empty empty 17 7 0 10 -262144 -1 -1 0
1;
#X obj 87 76 r ONE;
#X msg 63 109 0;
#X connect 0 0 11 0;
#X connect 1 0 11 0;
#X connect 2 0 11 0;
#X connect 3 0 11 0;
#X connect 4 0 11 0;
#X connect 5 0 11 0;
#X connect 6 0 11 0;
#X connect 7 0 13 0;
#X connect 8 0 10 0;
#X connect 10 0 9 0;
#X connect 11 0 8 0;
#X connect 12 0 11 0;
#X connect 13 0 11 0;
#X restore 21 83 pd button;
#X connect 0 0 3 0;
#X connect 2 0 9 0;
#X connect 3 0 5 0;
#X connect 3 0 6 0;
#X connect 3 1 4 0;
#X connect 4 0 7 0;
#X connect 5 0 8 0;
#X connect 9 0 0 0;
#X connect 11 0 0 0;
#X coords 0 -1 1 1 60 60 1 100 100;
#X restore 487 220 pd seven;
#X obj 0 -1 cnv 15 547 20 empty empty METRONOME_2.0 20 12 0 14 -204800
-66577 0;
#X text 588 36 Controles: m - metronome on/off up/down - tempo +/-
left/right - tempo +/- (fast) numbers 1/9 - time signatures;
#X coords 0 -1 1 1 547 280 1 0 0;
