#N canvas 761 327 516 438 10;
#X obj 148 32 bng 15 250 50 0 empty empty empty 17 7 0 10 -262144 -1
-1;
#X obj 42 175 osc~;
#X obj 42 133 mtof;
#X obj 112 275 *~;
#X obj 106 327 dac~;
#X obj 211 240 line~;
#X msg 308 182 0;
#X msg 240 181 0.8 1000;
#X msg 180 181 0 1000;
#X obj 228 84 t b b b;
#X obj 178 133 delay 1000;
#X obj 44 93 69;
#X connect 0 0 9 0;
#X connect 0 0 11 0;
#X connect 1 0 3 0;
#X connect 2 0 1 0;
#X connect 3 0 4 0;
#X connect 3 0 4 1;
#X connect 5 0 3 1;
#X connect 6 0 5 0;
#X connect 7 0 5 0;
#X connect 8 0 5 0;
#X connect 9 1 7 0;
#X connect 9 1 10 0;
#X connect 9 2 6 0;
#X connect 10 0 8 0;
#X connect 11 0 2 0;
