#N canvas 0 87 683 681 10;
#X obj 62 208 random 800;
#X obj 62 256 + 200;
#X obj 213 347 osc~, f 7;
#X obj 217 462 dac~;
#X obj 102 16 bng 15 250 50 0 empty empty empty 17 7 0 10 -262144 -1
-1;
#X obj 62 163 metro 500;
#X obj 62 125 + 200;
#X obj 63 84 random 1000;
#X obj 156 161 metro 500;
#X obj 260 159 metro 500;
#X obj 260 87 random 800;
#X obj 260 117 + 150;
#X obj 260 203 random 700;
#X obj 260 241 + 150;
#X obj 385 165 metro 500;
#X obj 156 85 random 900;
#X obj 156 126 + 175;
#X obj 156 212 random 750;
#X obj 156 259 + 175;
#X obj 385 91 random 700;
#X obj 385 127 + 125;
#X obj 385 210 random 600;
#X obj 385 258 + 125;
#X obj 213 396 *~ 0.1;
#X connect 0 0 1 0;
#X connect 1 0 2 0;
#X connect 2 0 23 0;
#X connect 4 0 7 0;
#X connect 4 0 15 0;
#X connect 4 0 10 0;
#X connect 4 0 19 0;
#X connect 5 0 0 0;
#X connect 6 0 5 0;
#X connect 7 0 6 0;
#X connect 8 0 17 0;
#X connect 9 0 12 0;
#X connect 10 0 11 0;
#X connect 11 0 9 0;
#X connect 12 0 13 0;
#X connect 13 0 2 0;
#X connect 14 0 21 0;
#X connect 15 0 16 0;
#X connect 16 0 8 0;
#X connect 17 0 18 0;
#X connect 18 0 2 0;
#X connect 19 0 20 0;
#X connect 20 0 14 0;
#X connect 21 0 22 0;
#X connect 22 0 2 0;
#X connect 23 0 3 1;
#X connect 23 0 3 0;
